<svg width="173" height="42" viewBox="0 0 173 42" fill="none" xmlns="http://www.w3.org/2000/svg">
<path opacity="0.5" d="M40.4312 2.25671L30.6261 36.9917C30.5763 37.1494 30.3768 37.1967 30.2605 37.0863L23.6961 30.8583L28.6152 13.4514C28.6651 13.2937 28.5155 13.1518 28.3493 13.1991L10.0022 17.8662L3.47101 11.6697C3.35468 11.5593 3.40453 11.3701 3.57072 11.3228L40.1653 2.00444C40.3315 1.97291 40.4811 2.11481 40.4312 2.25671Z" fill="#00B37E"/>
<path opacity="0.5" d="M23.6958 30.858L21.1697 39.8452C21.1198 40.0029 20.9204 40.0502 20.8041 39.9398L0.429428 20.6251C0.313097 20.5147 0.362953 20.3255 0.529141 20.2782L10.0019 17.8658L23.6958 30.858Z" fill="#00B37E"/>
<path d="M28.6144 13.4511L23.6952 30.858L10.0014 17.8659L28.3485 13.1988C28.5147 13.1515 28.6643 13.2934 28.6144 13.4511Z" fill="#00B37E"/>
<path d="M63.6401 29.5H59.6799L59.7049 26.5767H63.6401C64.6229 26.5767 65.4516 26.356 66.1262 25.9146C66.8008 25.4648 67.3089 24.811 67.6503 23.9532C68.0001 23.0953 68.175 22.0584 68.175 20.8425V19.9555C68.175 19.0227 68.0751 18.2023 67.8752 17.4944C67.6837 16.7865 67.3963 16.191 67.0132 15.7079C66.6301 15.2249 66.1595 14.8626 65.6015 14.621C65.0435 14.3712 64.4022 14.2462 63.6776 14.2462H59.605V11.3104H63.6776C64.8936 11.3104 66.0055 11.5186 67.0132 11.9351C68.0293 12.3432 68.908 12.9303 69.6492 13.6966C70.3904 14.4628 70.9609 15.3789 71.3607 16.445C71.7688 17.5027 71.9729 18.6812 71.9729 19.9805V20.8425C71.9729 22.1334 71.7688 23.3119 71.3607 24.3779C70.9609 25.444 70.3904 26.3601 69.6492 27.1264C68.9163 27.8843 68.0376 28.4714 67.0132 28.8879C65.9971 29.296 64.8728 29.5 63.6401 29.5ZM61.8037 11.3104V29.5H58.0558V11.3104H61.8037ZM81.9796 11.3104V29.5H78.2443V11.3104H81.9796ZM87.5764 11.3104V14.2462H72.7349V11.3104H87.5764ZM97.1209 11.3104H100.294L104.966 24.6653L109.639 11.3104H112.812L106.241 29.5H103.692L97.1209 11.3104ZM95.4094 11.3104H98.5701L99.1448 24.328V29.5H95.4094V11.3104ZM111.363 11.3104H114.536V29.5H110.788V24.328L111.363 11.3104ZM117.022 22.8788V22.6164C117.022 21.6253 117.164 20.7134 117.447 19.8805C117.73 19.0393 118.142 18.3106 118.684 17.6943C119.225 17.078 119.891 16.5991 120.682 16.2576C121.474 15.9078 122.381 15.7329 123.406 15.7329C124.43 15.7329 125.342 15.9078 126.142 16.2576C126.941 16.5991 127.612 17.078 128.153 17.6943C128.703 18.3106 129.119 19.0393 129.402 19.8805C129.686 20.7134 129.827 21.6253 129.827 22.6164V22.8788C129.827 23.8616 129.686 24.7735 129.402 25.6147C129.119 26.4476 128.703 27.1763 128.153 27.801C127.612 28.4173 126.946 28.8962 126.154 29.2377C125.363 29.5791 124.455 29.7499 123.431 29.7499C122.406 29.7499 121.494 29.5791 120.695 29.2377C119.904 28.8962 119.233 28.4173 118.684 27.801C118.142 27.1763 117.73 26.4476 117.447 25.6147C117.164 24.7735 117.022 23.8616 117.022 22.8788ZM120.62 22.6164V22.8788C120.62 23.4451 120.67 23.974 120.77 24.4654C120.87 24.9568 121.028 25.3899 121.245 25.7646C121.469 26.1311 121.761 26.4184 122.119 26.6266C122.477 26.8349 122.914 26.939 123.431 26.939C123.931 26.939 124.359 26.8349 124.718 26.6266C125.076 26.4184 125.363 26.1311 125.58 25.7646C125.796 25.3899 125.954 24.9568 126.054 24.4654C126.163 23.974 126.217 23.4451 126.217 22.8788V22.6164C126.217 22.0668 126.163 21.5504 126.054 21.0673C125.954 20.576 125.792 20.1429 125.567 19.7681C125.351 19.385 125.063 19.0851 124.705 18.8686C124.347 18.6521 123.914 18.5438 123.406 18.5438C122.898 18.5438 122.465 18.6521 122.107 18.8686C121.757 19.0851 121.469 19.385 121.245 19.7681C121.028 20.1429 120.87 20.576 120.77 21.0673C120.67 21.5504 120.62 22.0668 120.62 22.6164ZM135.561 18.8686V29.5H131.963V15.9828H135.337L135.561 18.8686ZM135.037 22.2666H134.062C134.062 21.2672 134.191 20.3677 134.45 19.5682C134.708 18.7603 135.07 18.0732 135.536 17.5069C136.003 16.9322 136.557 16.495 137.198 16.1951C137.848 15.887 138.572 15.7329 139.372 15.7329C140.005 15.7329 140.584 15.8245 141.108 16.0077C141.633 16.191 142.083 16.4825 142.457 16.8822C142.841 17.282 143.132 17.8109 143.332 18.4688C143.54 19.1268 143.644 19.9305 143.644 20.8799V29.5H140.021V20.8675C140.021 20.2678 139.938 19.8014 139.771 19.4683C139.605 19.1351 139.359 18.9019 139.034 18.7687C138.718 18.6271 138.326 18.5563 137.86 18.5563C137.377 18.5563 136.956 18.6521 136.598 18.8436C136.248 19.0352 135.957 19.3017 135.724 19.6432C135.499 19.9763 135.328 20.3677 135.212 20.8175C135.095 21.2672 135.037 21.7503 135.037 22.2666ZM152.602 29.7499C151.552 29.7499 150.611 29.5833 149.778 29.2501C148.945 28.9087 148.237 28.4381 147.654 27.8385C147.08 27.2388 146.638 26.5434 146.33 25.7521C146.022 24.9526 145.868 24.1031 145.868 23.2036V22.7039C145.868 21.6795 146.014 20.7425 146.305 19.893C146.597 19.0435 147.013 18.3064 147.555 17.6818C148.104 17.0571 148.77 16.5782 149.553 16.2451C150.336 15.9036 151.219 15.7329 152.202 15.7329C153.16 15.7329 154.009 15.8911 154.75 16.2076C155.492 16.5241 156.112 16.9739 156.612 17.5569C157.12 18.1398 157.503 18.8394 157.761 19.6556C158.019 20.4635 158.148 21.363 158.148 22.3541V23.8532H147.405V21.4546H154.613V21.1798C154.613 20.6801 154.521 20.2345 154.338 19.843C154.163 19.4433 153.897 19.1268 153.539 18.8936C153.18 18.6604 152.722 18.5438 152.164 18.5438C151.69 18.5438 151.282 18.6479 150.94 18.8561C150.599 19.0643 150.32 19.3558 150.103 19.7306C149.895 20.1054 149.737 20.5468 149.628 21.0548C149.528 21.5546 149.478 22.1042 149.478 22.7039V23.2036C149.478 23.745 149.553 24.2447 149.703 24.7028C149.862 25.1608 150.082 25.5564 150.365 25.8896C150.657 26.2227 151.007 26.4809 151.415 26.6641C151.831 26.8474 152.302 26.939 152.826 26.939C153.476 26.939 154.08 26.814 154.638 26.5642C155.204 26.306 155.692 25.9187 156.1 25.4024L157.849 27.3013C157.565 27.7094 157.178 28.1008 156.687 28.4756C156.204 28.8504 155.621 29.1585 154.938 29.4001C154.255 29.6333 153.476 29.7499 152.602 29.7499ZM164.033 27.9759L167.618 15.9828H171.478L166.044 31.5363C165.927 31.8778 165.769 32.2443 165.569 32.6357C165.378 33.0271 165.115 33.3978 164.782 33.7476C164.457 34.1057 164.045 34.3972 163.545 34.6221C163.054 34.8469 162.45 34.9594 161.734 34.9594C161.392 34.9594 161.113 34.9385 160.897 34.8969C160.68 34.8553 160.422 34.797 160.122 34.722V32.086C160.214 32.086 160.31 32.086 160.41 32.086C160.51 32.0943 160.605 32.0985 160.697 32.0985C161.172 32.0985 161.559 32.0444 161.859 31.9361C162.159 31.8278 162.4 31.6613 162.583 31.4364C162.767 31.2198 162.912 30.9367 163.021 30.5869L164.033 27.9759ZM162.533 15.9828L165.469 25.7771L165.981 29.5874L163.533 29.8498L158.673 15.9828H162.533Z" fill="#E1E1E6"/>
</svg>
