<svg width="41" height="38" viewBox="0 0 41 38" fill="none" xmlns="http://www.w3.org/2000/svg">
<path opacity="0.5" d="M40.4312 0.256714L30.6261 34.9917C30.5763 35.1494 30.3768 35.1967 30.2605 35.0863L23.6961 28.8583L28.6152 11.4514C28.6651 11.2937 28.5155 11.1518 28.3493 11.1991L10.0022 15.8662L3.47101 9.66969C3.35468 9.55932 3.40453 9.37011 3.57072 9.32281L40.1653 0.00444022C40.3315 -0.027094 40.4811 0.11481 40.4312 0.256714Z" fill="#00B37E"/>
<path opacity="0.5" d="M23.6958 28.858L21.1697 37.8452C21.1198 38.0029 20.9204 38.0502 20.8041 37.9398L0.429428 18.6251C0.313097 18.5147 0.362953 18.3255 0.529141 18.2782L10.0019 15.8658L23.6958 28.858Z" fill="#00B37E"/>
<path d="M28.6144 11.4511L23.6952 28.858L10.0014 15.8659L28.3485 11.1988C28.5147 11.1515 28.6643 11.2934 28.6144 11.4511Z" fill="#00B37E"/>
</svg>
